<svg width="18" height="17" viewBox="0 0 18 17" fill="none" xmlns="http://www.w3.org/2000/svg">
<rect width="18" height="17" fill="#4E4E4E"/>
<g id="Video" clip-path="url(#clip0_0_1)">
<rect width="1440" height="1024" transform="translate(-544 -498)" fill="#181818"/>
<g id="Primary" clip-path="url(#clip1_0_1)">
<rect width="664" height="968" transform="translate(-382 -442)" fill="#181818"/>
<g id="VideoPlayer">
<g id="Video-Info">
<g id="Video-Info_2">
<g id="Info">
<g id="Top-Level">
<g id="Button">
<g id="Button-Btn">
<g id="Video-Page/Icons/DisLiked">
<g id="Group">
<path id="Vector" d="M14.0001 0H13.0001H3.57007C2.50007 0 1.59007 0.67 1.38007 1.61L0.040068 7.61C-0.229932 8.85 0.820068 10 2.23007 10H6.46007L4.94007 14.94C4.62007 15.97 5.46007 17 6.62007 17C7.20007 17 7.76007 16.76 8.14007 16.35L14.0001 10H18.0001V0H14.0001ZM7.40007 15.67C7.21007 15.88 6.92007 16 6.62007 16C6.36007 16 6.12007 15.89 5.99007 15.7C5.92007 15.6 5.84007 15.44 5.90007 15.23L7.42007 10.29L7.82007 9H6.46007H2.23007C1.82007 9 1.43007 8.83 1.20007 8.54C1.08007 8.39 0.950068 8.14 1.02007 7.82L2.36007 1.82C2.46007 1.35 2.97007 1 3.57007 1H13.0001V9.61L7.40007 15.67ZM17.0001 9H14.0001V1H17.0001V9Z" fill="white"/>
</g>
</g>
</g>
</g>
</g>
</g>
</g>
</g>
</g>
</g>
</g>
<defs>
<clipPath id="clip0_0_1">
<rect width="1440" height="1024" fill="white" transform="translate(-544 -498)"/>
</clipPath>
<clipPath id="clip1_0_1">
<rect width="664" height="968" fill="white" transform="translate(-382 -442)"/>
</clipPath>
</defs>
</svg>
